<?xml version="1.0" standalone="no"?>
<!DOCTYPE svg PUBLIC "-//W3C//DTD SVG 20010904//EN"
 "http://www.w3.org/TR/2001/REC-SVG-20010904/DTD/svg10.dtd">
<svg version="1.0" xmlns="http://www.w3.org/2000/svg"
 width="2134.000000pt" height="2134.000000pt" viewBox="0 0 2134.000000 2134.000000"
 preserveAspectRatio="xMidYMid meet">
<metadata>
Created by potrace 1.14, written by Peter Selinger 2001-2017
</metadata>
<g transform="translate(0.000000,2134.000000) scale(0.100000,-0.100000)"
fill="#000000" stroke="none">
<path d="M5855 17609 c-894 -109 -1597 -678 -1875 -1517 -94 -285 -130 -511
-130 -822 0 -372 61 -678 199 -1006 264 -621 811 -1094 1465 -1265 195 -50
335 -70 546 -76 355 -10 641 45 916 177 165 79 274 159 422 306 l132 132 0
-198 c0 -337 -29 -509 -118 -693 -104 -217 -256 -360 -486 -460 -188 -81 -385
-112 -668 -104 -201 5 -269 16 -423 64 -235 74 -491 250 -625 432 -29 39 -50
58 -60 55 -21 -7 -1119 -674 -1124 -683 -3 -4 25 -48 61 -97 90 -121 345 -374
470 -467 374 -276 780 -441 1278 -519 168 -26 593 -36 787 -18 405 36 761 132
1093 295 269 131 455 262 650 459 342 345 547 778 610 1286 13 108 15 412 15
2372 l0 2248 -727 -2 -728 -3 -5 -253 -5 -254 -53 66 c-232 285 -639 491
-1082 546 -98 12 -433 11 -535 -1z m803 -1269 c469 -95 777 -416 849 -885 18
-121 13 -322 -12 -440 -91 -433 -417 -740 -870 -820 -121 -21 -361 -22 -485 0
-461 79 -781 383 -874 830 -49 233 -19 523 74 730 101 225 292 411 529 515 86
37 232 76 339 89 116 15 331 6 450 -19z"/>
<path d="M9631 17488 c0 -7 357 -1066 793 -2353 l793 -2340 739 0 738 0 367
1165 c202 641 384 1219 404 1285 l37 119 384 -1219 c212 -671 394 -1250 405
-1287 l21 -68 738 0 738 0 23 68 c12 37 370 1095 795 2352 426 1256 774 2286
774 2287 0 2 -349 2 -776 1 l-776 -3 -406 -1447 c-224 -797 -409 -1448 -412
-1448 -3 0 -188 640 -411 1423 l-406 1422 -673 0 -673 0 -406 -1422 c-223
-783 -408 -1423 -411 -1423 -3 0 -188 651 -412 1448 l-406 1447 -791 3 c-630
2 -791 0 -790 -10z"/>
<path d="M9650 11784 c0 -11 1524 -6119 1571 -6297 6 -21 14 -37 19 -35 5 2
319 303 698 669 l689 667 1064 -1065 c585 -585 1097 -1091 1137 -1123 133
-108 294 -188 465 -231 106 -26 333 -36 447 -20 268 40 504 162 693 360 377
395 433 1004 135 1463 -54 83 -175 207 -1147 1180 l-1086 1088 50 49 c28 26
389 376 804 777 630 608 751 729 735 736 -10 4 -1398 402 -3084 884 -1686 482
-3093 885 -3127 895 -53 15 -63 15 -63 3z"/>
<path d="M6160 9820 c-1061 -100 -1825 -574 -2074 -1287 -69 -199 -81 -280
-81 -538 0 -204 3 -242 23 -334 102 -453 391 -789 887 -1031 295 -144 497
-205 1185 -359 822 -185 1006 -235 1180 -319 100 -48 190 -136 214 -210 25
-75 24 -177 -2 -227 -68 -134 -270 -231 -584 -280 -158 -25 -523 -31 -673 -11
-509 68 -936 313 -1186 684 l-50 72 -52 -30 c-29 -16 -317 -180 -641 -362
-323 -183 -591 -339 -593 -345 -3 -7 21 -52 53 -100 360 -541 1018 -985 1724
-1163 147 -37 297 -65 452 -86 163 -22 677 -30 876 -15 810 64 1470 325 1887
746 129 130 212 243 289 395 121 235 161 411 160 700 -1 214 -16 318 -74 492
-172 514 -658 885 -1446 1102 -71 20 -361 88 -644 151 -283 64 -587 134 -675
157 -390 99 -576 193 -646 328 -33 63 -34 196 -2 255 49 93 148 164 298 214
158 53 254 65 510 65 202 1 244 -2 345 -22 240 -49 460 -137 644 -259 109 -72
292 -246 336 -320 14 -23 29 -43 33 -43 7 0 1207 670 1265 706 l22 15 -36 57
c-109 171 -303 384 -479 525 -369 297 -841 515 -1340 617 -250 52 -356 62
-690 65 -176 2 -363 -1 -415 -5z"/>
</g>
</svg>
