<?xml version="1.0" standalone="no"?>
<!DOCTYPE svg PUBLIC "-//W3C//DTD SVG 20010904//EN"
 "http://www.w3.org/TR/2001/REC-SVG-20010904/DTD/svg10.dtd">
<svg version="1.0" xmlns="http://www.w3.org/2000/svg"
 width="512.000000pt" height="512.000000pt" viewBox="0 0 512.000000 512.000000"
 preserveAspectRatio="xMidYMid meet">
<metadata>
Created by potrace 1.14, written by Peter Selinger 2001-2017
</metadata>
<g transform="translate(0.000000,512.000000) scale(0.100000,-0.100000)"
fill="#000000" stroke="none">
<path d="M605 3141 c-91 -23 -131 -41 -203 -90 -114 -77 -200 -198 -241 -337
-32 -107 -30 -295 4 -401 88 -279 346 -452 643 -429 136 10 237 53 330 139
l32 31 0 -85 c0 -236 -115 -364 -335 -377 -154 -8 -254 26 -342 115 l-53 54
-122 -78 c-67 -43 -123 -84 -125 -90 -6 -18 100 -126 166 -170 124 -83 267
-123 436 -123 350 0 599 167 691 465 18 56 19 104 19 710 l0 650 -165 0 -165
0 -3 -67 -3 -67 -42 39 c-118 112 -336 158 -522 111z m377 -305 c117 -55 188
-172 188 -310 0 -155 -68 -262 -205 -323 -62 -27 -244 -25 -307 4 -97 44 -163
119 -187 208 -54 208 47 393 244 446 17 5 71 7 120 5 73 -2 101 -8 147 -30z"/>
<path d="M4183 3140 c-109 -25 -201 -71 -266 -134 -64 -61 -91 -110 -106 -191
-12 -65 -1 -157 25 -208 25 -47 83 -105 138 -136 86 -50 128 -63 421 -131 141
-33 198 -54 229 -86 22 -21 21 -88 -1 -110 -29 -29 -98 -54 -183 -66 -146 -22
-283 20 -391 120 -31 28 -60 52 -65 52 -10 0 -232 -129 -238 -138 -9 -14 67
-103 127 -148 192 -145 437 -196 685 -143 187 40 313 123 374 247 29 59 33 76
32 147 0 99 -31 172 -100 235 -48 44 -158 101 -234 119 -25 6 -61 16 -80 21
-19 5 -78 19 -130 30 -231 51 -290 81 -290 149 0 76 85 121 231 121 68 0 103
-5 154 -24 71 -26 136 -66 165 -103 10 -13 22 -23 28 -23 9 0 228 123 240 134
15 16 -77 112 -157 164 -175 113 -396 150 -608 102z"/>
<path d="M1658 3125 c-6 -7 -2 -19 222 -655 34 -96 67 -193 75 -215 66 -201
138 -392 152 -402 23 -18 293 -18 315 0 9 6 71 179 138 382 66 204 124 373
128 377 4 4 63 -162 131 -370 68 -207 130 -383 139 -389 18 -15 298 -18 320
-5 6 5 32 66 56 138 25 71 72 208 106 304 34 96 84 238 110 315 26 77 77 224
113 327 36 102 63 189 60 192 -4 3 -79 6 -168 6 -118 0 -165 -3 -173 -12 -5
-7 -39 -107 -75 -223 -37 -115 -93 -297 -127 -404 -33 -107 -62 -197 -65 -199
-12 -12 -3 -37 -147 428 -33 107 -73 237 -89 288 -15 51 -31 97 -34 102 -7 12
-274 13 -293 2 -7 -5 -21 -37 -31 -73 -11 -35 -33 -109 -51 -164 -17 -55 -37
-120 -45 -145 -67 -226 -140 -450 -147 -450 -4 0 -8 5 -8 12 0 7 -15 60 -34
118 -19 58 -62 195 -96 305 -34 110 -77 247 -95 305 l-34 105 -173 3 c-96 1
-177 0 -180 -3z"/>
</g>
</svg>
